<?xml version="1.0" standalone="no"?>
<!DOCTYPE svg PUBLIC "-//W3C//DTD SVG 1.1//EN" "http://www.w3.org/Graphics/SVG/1.1/DTD/svg11.dtd">
<svg width="100%" height="100%" viewBox="0 0 2800 800" version="1.1" xmlns="http://www.w3.org/2000/svg" xmlns:xlink="http://www.w3.org/1999/xlink" xml:space="preserve" style="fill-rule:evenodd;clip-rule:evenodd;stroke-linejoin:round;stroke-miterlimit:1.41421;">
    <g transform="matrix(4.16667,0,0,4.16667,0,0)">
        <path d="M90.593,187.207L73.126,187.207L66.315,167.886L34.61,167.886L27.803,187.207L9.228,187.207L42.411,100.518L59.257,100.518L90.593,182.984L90.593,187.207ZM50.467,122.187C49.595,125.408 47.863,130.61 46.132,135.687L40.557,151.416L60.373,151.416L54.798,135.687C53.067,130.61 51.329,125.408 50.467,122.187Z" style="fill:rgb(216,138,41);fill-rule:nonzero;"/>
        <path d="M107.688,187.207L90.593,187.207L90.593,182.984L90.593,122.187L107.688,122.187L107.688,126.523C110.659,123.43 114.989,120.826 121.061,120.826C125.815,120.826 129.582,122.449 131.971,124.389L131.971,129.552L128.617,142.132C125.892,139.648 122.545,137.915 118.705,137.915C112.019,137.915 107.688,140.765 107.688,152.033L107.688,187.207Z" style="fill:rgb(216,138,41);fill-rule:nonzero;"/>
        <path d="M160.206,188.566C149.679,188.566 142.87,180.395 142.87,169.001L142.87,138.286L131.971,138.286L131.971,129.552L131.971,124.389L131.971,122.187L142.87,122.187L142.87,105.467L153.612,100.098C155.532,101.11 157.666,101.758 159.958,101.986L159.958,122.187L175.561,122.187L175.561,138.286L159.958,138.286L159.958,164.418C159.958,170.608 162.189,172.221 166.273,172.221C169.372,172.221 171.724,170.858 175.933,167.266L173.458,184.607C170.61,186.839 165.531,188.566 160.206,188.566Z" style="fill:rgb(216,138,41);fill-rule:nonzero;"/>
        <path d="M240.459,188.566C217.795,188.566 202.56,171.23 202.56,143.862C202.56,117.482 218.412,99.154 241.075,99.154C257.424,99.154 267.33,107.08 272.781,118.35L256.681,125.779C253.586,119.833 248.632,116.368 240.828,116.368C227.823,116.368 220.394,127.763 220.394,143.862C220.394,159.465 227.946,171.356 240.952,171.356C248.755,171.356 253.335,168.011 257.918,160.329L272.53,169.001C266.59,181.265 256.186,188.566 240.459,188.566Z" style="fill:rgb(216,138,41);fill-rule:nonzero;"/>
        <path d="M295.695,187.207L278.605,187.207L278.605,122.187L295.695,122.187L295.695,126.523C298.669,123.43 303.006,120.826 309.072,120.826C314.645,120.826 318.854,123.053 321.085,125.408L316.627,142.132C313.903,139.648 310.557,137.915 306.717,137.915C300.03,137.915 295.695,140.765 295.695,152.033L295.695,187.207Z" style="fill:rgb(216,138,41);fill-rule:nonzero;"/>
        <path d="M341.034,188.566C328.901,188.566 316.767,181.138 316.767,165.408C316.767,151.045 328.405,143.862 343.143,143.862C349.09,143.862 352.927,145.1 355.652,146.464L355.652,143.243C355.652,138.66 352.555,134.944 346.361,134.944C338.562,134.944 334.477,136.058 328.527,139.279L321.966,127.391C329.517,123.053 335.839,120.826 346.361,120.826C362.089,120.826 372.742,129 372.742,143.613L372.742,187.207L355.652,187.207L355.652,182.87C352.555,186.092 347.106,188.566 341.034,188.566ZM343.766,157.238C337.32,157.238 333.854,160.208 333.854,165.408C333.854,169.991 336.458,174.076 343.766,174.076C349.337,174.076 353.795,171.23 355.652,168.134L355.652,159.96C352.676,158.105 349.828,157.238 343.766,157.238Z" style="fill:rgb(216,138,41);fill-rule:nonzero;"/>
        <path d="M439.617,187.207L425.368,187.207L418.931,161.695C417.692,156.616 415.958,149.436 415.469,146.338C414.97,149.436 413.23,156.616 411.992,161.695L405.559,187.207L391.315,187.207L372.612,122.187L389.952,122.187L395.647,146.213C396.764,151.166 398.247,157.98 398.742,161.076C399.241,157.856 400.848,151.291 402.212,146.213L408.647,122.187L422.768,122.187L429.208,146.213C430.57,151.291 432.182,157.856 432.679,161.076C433.173,157.98 434.661,151.166 435.77,146.213L441.469,122.187L458.31,122.187L439.617,187.207Z" style="fill:rgb(216,138,41);fill-rule:nonzero;"/>
        <path d="M478.749,187.207L461.66,187.207L461.66,105.467L478.749,96.926L478.749,187.207Z" style="fill:rgb(216,138,41);fill-rule:nonzero;"/>
        <path d="M85.607,102.078C76.554,102.078 68.663,98.286 64.557,92.248L72.373,85.282C76.167,89.695 81.042,91.475 86.223,91.475C92.65,91.475 95.67,89.695 95.67,85.596C95.67,82.112 93.812,80.562 83.597,78.241C73.614,75.922 66.648,72.747 66.648,62.07C66.648,52.241 75.315,46.207 85.993,46.207C94.432,46.207 100.625,49.376 105.729,54.716L97.91,62.298C94.432,58.741 90.561,56.73 85.607,56.73C79.804,56.73 77.869,59.205 77.869,61.603C77.869,65.011 80.19,66.094 88.782,68.106C97.371,70.115 106.892,73.058 106.892,84.82C106.892,95.11 100.391,102.078 85.607,102.078Z" style="fill:rgb(0,110,131);fill-rule:nonzero;"/>
        <path d="M127.316,102.078C116.719,102.078 108.28,93.411 108.28,80.95C108.28,68.491 116.483,59.747 127.778,59.747C135.521,59.747 140.473,63.541 143.876,68.722L136.837,75.844C134.438,72.437 131.884,70.04 127.547,70.04C122.439,70.04 119.115,74.295 119.115,80.95C119.115,87.453 122.439,91.786 127.547,91.786C131.727,91.786 134.36,89.926 137.144,86.598L143.956,93.024C140.01,98.286 135.365,102.078 127.316,102.078Z" style="fill:rgb(0,110,131);fill-rule:nonzero;"/>
        <path d="M161.829,102.078C161.195,102.078 160.571,102.047 159.958,101.986L159.958,96.926L153.612,100.098C147.461,96.857 143.491,89.877 143.491,80.95C143.491,68.491 151.227,59.747 161.829,59.747C172.431,59.747 180.251,68.491 180.251,80.95C180.251,93.411 172.431,102.078 161.829,102.078ZM161.829,70.04C156.723,70.04 154.325,74.685 154.325,80.95C154.325,87.219 156.723,91.786 161.829,91.786C166.94,91.786 169.414,86.598 169.414,80.95C169.414,74.76 166.94,70.04 161.829,70.04Z" style="fill:rgb(0,110,131);fill-rule:nonzero;"/>
        <path d="M159.958,101.986C157.666,101.758 155.532,101.11 153.612,100.098L159.958,96.926L159.958,101.986Z" style="fill:rgb(0,67,37);fill-rule:nonzero;"/>
        <path d="M197.123,102.078C190.548,102.078 186.29,96.969 186.29,89.852L186.29,70.659L179.481,70.659L179.481,60.599L186.29,60.599L186.29,50.151L196.97,44.811L196.97,60.599L206.722,60.599L204.783,60.599L204.783,70.659L196.97,70.659L196.97,86.987C196.97,90.856 198.36,91.861 200.916,91.861C202.85,91.861 204.319,91.008 206.951,88.766L205.404,99.6C203.623,100.994 200.45,102.078 197.123,102.078Z" style="fill:rgb(0,110,131);fill-rule:nonzero;"/>
        <path d="M222.427,102.078C215.845,102.078 211.593,96.969 211.593,89.852L211.593,70.659L204.783,70.659L204.783,60.599L211.593,60.599L211.593,50.151L222.271,44.811L222.271,60.599L232.02,60.599L232.02,70.659L222.271,70.659L222.271,86.987C222.271,90.856 223.665,91.861 226.216,91.861C228.151,91.861 229.624,91.008 232.254,88.766L230.71,99.6C228.928,100.994 225.755,102.078 222.427,102.078Z" style="fill:rgb(0,110,131);fill-rule:nonzero;"/>
        <path d="M273.343,102.078C259.183,102.078 249.663,91.244 249.663,74.142C249.663,57.657 259.565,46.207 273.73,46.207C283.946,46.207 290.138,51.158 293.54,58.2L283.481,62.842C281.546,59.125 278.45,56.961 273.575,56.961C265.451,56.961 260.807,64.082 260.807,74.142C260.807,83.892 265.523,91.32 273.655,91.32C278.53,91.32 281.394,89.233 284.258,84.433L293.386,89.852C289.671,97.514 283.171,102.078 273.343,102.078Z" style="fill:rgb(0,110,131);fill-rule:nonzero;"/>
        <path d="M311.03,102.078C300.427,102.078 292.685,93.411 292.685,80.95C292.685,68.491 300.427,59.747 311.03,59.747C321.628,59.747 329.447,68.491 329.447,80.95C329.447,93.411 321.628,102.078 311.03,102.078ZM311.03,70.04C305.92,70.04 303.524,74.685 303.524,80.95C303.524,87.219 305.92,91.786 311.03,91.786C316.135,91.786 318.612,86.598 318.612,80.95C318.612,74.76 316.135,70.04 311.03,70.04Z" style="fill:rgb(0,110,131);fill-rule:nonzero;"/>
        <path d="M346.935,102.078C336.561,102.078 331.92,94.956 331.92,83.504L331.92,60.599L342.596,60.599L342.596,82.578C342.596,89.852 345.075,92.019 349.487,92.019C353.898,92.019 356.451,89.852 356.451,82.809L356.451,60.599L367.129,60.599L367.129,101.226L356.451,101.226L356.451,98.518C354.595,100.454 351.191,102.078 346.935,102.078Z" style="fill:rgb(0,110,131);fill-rule:nonzero;"/>
        <path d="M407.293,101.226L396.609,101.226L396.609,79.249C396.609,71.97 394.134,69.808 389.723,69.808C385.312,69.808 382.757,71.97 382.757,79.016L382.757,101.226L372.083,101.226L372.083,60.599L382.757,60.599L382.757,63.308C384.614,61.374 388.02,59.747 392.276,59.747C402.647,59.747 407.293,66.867 407.293,78.321L407.293,101.226Z" style="fill:rgb(0,110,131);fill-rule:nonzero;"/>
        <path d="M425.088,102.078C418.508,102.078 414.253,96.969 414.253,89.852L414.253,70.659L407.442,70.659L407.442,60.599L414.253,60.599L414.253,50.151L424.931,44.811L424.931,60.599L434.685,60.599L434.6,60.599L434.685,60.818L434.685,70.659L424.931,70.659L424.931,86.987C424.931,90.856 426.324,91.861 428.878,91.861C430.813,91.861 432.283,91.008 434.914,88.766L433.365,99.6C431.587,100.994 428.416,102.078 425.088,102.078Z" style="fill:rgb(0,110,131);fill-rule:nonzero;"/>
        <path d="M455.499,115.541L444.974,115.541L450.393,101.226L434.685,60.818L434.6,60.599L446.365,60.599L453.018,80.179C454.104,83.272 455.186,87.141 455.652,89.075C456.117,87.064 457.2,83.35 458.284,80.179L464.94,60.599L476.39,60.599L455.499,115.541Z" style="fill:rgb(0,110,131);fill-rule:nonzero;"/>
        <path d="M665.816,192L523.684,192C523.684,192 523.466,190.164 523.859,187.365L565.842,187.365C566.967,176.246 567.34,166.937 567.109,159.097C601.729,151.07 579.809,116.512 639.288,115.467C639.368,116.023 639.443,116.591 639.512,117.172C642.917,145.915 657.643,152.545 665.816,153.983L665.816,192Z" style="fill:rgb(216,138,41);fill-rule:nonzero;"/>
        <path d="M669.95,154.359C668.976,154.359 667.542,154.287 665.816,153.983L665.816,116.777C656.768,115.861 648.925,115.443 642.09,115.443C641.138,115.443 640.201,115.451 639.288,115.467C633.353,74.487 596.242,100.386 594.821,39.548C596.746,39.101 598.847,38.735 601.145,38.462C629.881,35.055 636.514,20.341 637.954,12.168L671.337,12.168L671.337,154.3C671.337,154.3 670.833,154.359 669.95,154.359Z" style="fill:rgb(0,110,131);fill-rule:nonzero;"/>
        <path d="M665.816,153.983C657.643,152.545 642.917,145.915 639.512,117.172C639.443,116.591 639.368,116.023 639.288,115.467C640.201,115.451 641.138,115.443 642.09,115.443C648.925,115.443 656.768,115.861 665.816,116.777L665.816,153.983Z" style="fill:rgb(14,47,31);fill-rule:nonzero;"/>
        <path d="M522.544,83.177C522.508,82.906 522.474,82.635 522.44,82.358C519.03,53.619 504.313,46.988 496.142,45.549L496.142,6.64L638.271,6.64C638.271,6.64 638.534,8.873 637.954,12.168L596.112,12.168C595.028,22.872 594.642,31.894 594.821,39.548C560.213,47.59 582.151,82.169 522.544,83.177Z" style="fill:rgb(144,69,123);fill-rule:nonzero;"/>
        <path d="M594.821,39.548C594.642,31.894 595.028,22.872 596.112,12.168L637.954,12.168C636.514,20.341 629.881,35.055 601.145,38.462C598.847,38.735 596.746,39.101 594.821,39.548Z" style="fill:rgb(0,10,36);fill-rule:nonzero;"/>
        <path d="M523.859,187.365L490.618,187.365L490.618,45.232C490.618,45.232 491.123,45.172 492.007,45.172C492.98,45.172 494.415,45.245 496.142,45.549L496.142,81.867C505.183,82.782 513.018,83.199 519.849,83.199C520.766,83.199 521.663,83.192 522.544,83.177C528.049,125.207 565.338,98.964 567.109,159.097C565.19,159.542 563.098,159.905 560.808,160.177C530.994,163.711 524.973,179.42 523.859,187.365Z" style="fill:rgb(133,125,0);fill-rule:nonzero;"/>
        <path d="M565.842,187.365L523.859,187.365C524.973,179.42 530.994,163.711 560.808,160.177C563.098,159.905 565.19,159.542 567.109,159.097C567.34,166.937 566.967,176.246 565.842,187.365Z" style="fill:rgb(97,42,4);fill-rule:nonzero;"/>
        <path d="M519.849,83.199C513.018,83.199 505.183,82.782 496.142,81.867L496.142,45.549C504.313,46.988 519.03,53.619 522.44,82.358C522.474,82.635 522.508,82.906 522.544,83.177C521.663,83.192 520.766,83.199 519.849,83.199Z" style="fill:rgb(48,12,12);fill-rule:nonzero;"/>
        <g>
            <clipPath id="_clip1">
                <path d="M480.147,42.163L477.116,42.163L477.116,41.635L477.116,34.713L480.147,34.714L480.147,42.163ZM469.549,42.163L447.788,42.163L447.788,9.908L468.304,9.908L455.436,29.575L455.436,34.713L469.548,34.713L469.549,42.163ZM440.076,42.163L421.6,42.163C423.398,41.34 424.904,40.032 426.047,38.325C428.12,35.253 429.114,30.985 429.117,25.841C429.113,21.108 428.232,16.949 426.265,13.876C425.162,12.134 423.67,10.765 421.846,9.908L440.645,9.908L433.11,13.626L434.573,20.111L440.076,17.336L440.076,42.163ZM412.072,42.163L402.525,42.163L402.525,41.635L402.525,35.738L391.294,35.738L392.097,35.048L392.126,35.023C397.551,29.964 401.776,25.373 401.807,19.361C401.809,16.6 400.888,13.961 398.974,12.021C398.118,11.151 397.071,10.434 395.846,9.908L412.316,9.908C410.501,10.748 408.972,12.087 407.803,13.815C405.704,16.894 404.654,21.141 404.652,26.129C404.68,31.017 405.664,35.205 407.68,38.261C408.804,39.981 410.291,41.321 412.072,42.163ZM416.741,41.162C413.45,41.143 411.079,39.739 409.348,37.158C407.631,34.574 406.672,30.746 406.651,26.124C406.649,21.419 407.664,17.553 409.453,14.944C411.256,12.338 413.732,10.92 417.077,10.903L417.077,9.908L417.077,10.904C420.541,10.925 422.897,12.372 424.582,14.955C426.252,17.547 427.121,21.357 427.117,25.841C427.121,30.73 426.147,34.622 424.392,37.204C422.624,39.778 420.177,41.142 416.741,41.162ZM416.934,38.651C416.95,38.651 416.966,38.651 416.983,38.651C419.142,38.651 420.851,37.187 421.782,35.009C422.761,32.8 423.209,29.763 423.214,25.937C423.209,22.232 422.785,19.245 421.819,17.052C420.9,14.89 419.185,13.415 416.988,13.415C416.97,13.415 416.952,13.415 416.934,13.416L416.934,15.416C418.261,15.441 419.165,16.095 419.991,17.864C420.777,19.62 421.218,22.393 421.213,25.937C421.218,29.599 420.754,32.418 419.956,34.195C419.119,35.985 418.206,36.627 416.934,36.65C415.754,36.631 414.813,36.037 413.954,34.357C413.126,32.687 412.597,29.996 412.602,26.38C412.601,26.289 412.601,26.219 412.603,26.176L412.604,26.142L412.604,26.118C412.603,26.026 412.601,25.946 412.601,25.879C412.597,22.146 413.148,19.408 413.987,17.718C414.856,16.017 415.807,15.433 416.934,15.416L416.934,14.417L416.934,13.416C416.921,13.415 416.908,13.415 416.896,13.415C414.9,13.415 413.2,14.731 412.193,16.833C411.151,18.96 410.605,21.954 410.601,25.879C410.602,25.967 410.603,26.044 410.604,26.114C410.6,26.222 410.602,26.31 410.602,26.38C410.605,30.185 411.128,33.129 412.159,35.24C413.152,37.325 414.86,38.651 416.891,38.651C416.905,38.651 416.919,38.651 416.934,38.651ZM475.117,40.635L471.548,40.635L471.548,32.714L457.434,32.714L457.434,30.17L469.696,11.43L475.115,11.43L475.116,30.249L479.149,30.249L479.149,32.712L475.117,32.713L475.117,40.635ZM462.052,29.25L462.052,30.249L471.548,30.249L471.548,20.753C471.548,18.995 471.596,17.196 471.736,15.407L471.82,14.329L470.549,14.329L469.923,14.329L469.649,14.889C468.7,16.833 467.9,18.389 466.958,20.086L461.237,28.642L461.157,28.802L460.434,30.249L462.052,30.249L462.052,29.25L462.945,29.696L462.052,29.25ZM442.075,40.635L442.075,14.76L440.981,14.76L440.739,14.76L435.96,17.17L435.407,14.724L442.077,11.431L445.788,11.431L445.788,40.634L442.075,40.635ZM400.526,40.634L381.355,40.634L381.355,38.473L384.73,35.361C392.044,28.531 395.778,24.72 395.901,19.949C395.903,18.375 395.483,16.799 394.384,15.6C393.291,14.403 391.582,13.704 389.37,13.704C389.357,13.704 389.345,13.704 389.333,13.704C386.839,13.711 384.711,14.712 383.107,15.759L382.152,13.451C384.212,11.994 387.162,10.904 390.516,10.904C390.522,10.904 390.527,10.904 390.533,10.904C396.984,10.975 399.728,14.722 399.806,19.361C399.836,24.291 396.19,28.532 390.767,33.554L387.709,36.182L387.709,37.739L400.526,37.739L400.526,40.634ZM380.357,36.672L380.357,14.346L382.231,18.876L383.265,18.093C384.762,16.952 386.932,15.704 389.308,15.704C389.316,15.704 389.325,15.705 389.333,15.705C391.183,15.712 392.245,16.236 392.911,16.953C393.576,17.673 393.9,18.714 393.901,19.937C393.928,23.409 390.75,27.088 383.372,33.893L380.357,36.672ZM480.147,28.249L477.116,28.249L477.117,9.908L480.147,9.908L480.147,28.249ZM463.907,28.248L468.669,21.125L468.687,21.094C468.988,20.552 469.275,20.023 469.557,19.493C469.551,19.916 469.548,20.336 469.548,20.753L469.548,28.248L463.907,28.248ZM380.357,12.299L380.357,9.908L384.704,9.908C383.026,10.51 381.554,11.344 380.357,12.299Z"/>
            </clipPath>
            <g clip-path="url(#_clip1)">
                <path d="M401.525,41.635L401.525,36.739L388.709,36.739L388.709,36.643L391.445,34.291C396.869,29.251 400.805,24.835 400.805,19.363C400.805,14.275 397.445,9.907 390.533,9.907C386.597,9.907 383.189,11.299 380.933,13.123L382.661,17.299C384.245,16.099 386.597,14.707 389.333,14.707C393.413,14.707 394.901,17.155 394.901,19.939C394.853,24.067 391.397,27.811 384.053,34.627L380.357,38.035L380.357,41.635L401.525,41.635Z" style="fill:rgb(133,125,0);fill-opacity:0;fill-rule:nonzero;"/>
                <path d="M417.076,9.907C409.78,9.907 405.652,16.435 405.652,26.131C405.7,35.635 409.54,42.163 416.74,42.163C424.18,42.163 428.116,35.875 428.116,25.843C428.116,16.627 424.612,9.907 417.076,9.907ZM416.932,14.419C420.484,14.419 422.212,18.691 422.212,25.939C422.212,33.427 420.388,37.651 416.932,37.651C413.668,37.651 411.556,33.715 411.604,26.131C411.556,18.307 413.764,14.419 416.932,14.419Z" style="fill:rgb(133,125,0);fill-opacity:0;fill-rule:nonzero;"/>
                <path d="M441.076,41.635L446.788,41.635L446.788,10.435L441.844,10.435L434.26,14.179L435.268,18.643L440.98,15.763L441.076,15.763L441.076,41.635Z" style="fill:rgb(133,125,0);fill-opacity:0;fill-rule:nonzero;"/>
                <path d="M476.115,41.635L476.115,33.715L480.147,33.715L480.147,29.251L476.115,29.251L476.115,10.435L469.155,10.435L456.435,29.875L456.435,33.715L470.547,33.715L470.547,41.635L476.115,41.635ZM462.051,29.251L462.099,29.155L467.811,20.611C468.771,18.883 469.587,17.299 470.547,15.331L470.739,15.331C470.595,17.155 470.547,18.979 470.547,20.755L470.547,29.251L462.051,29.251Z" style="fill:rgb(133,125,0);fill-opacity:0;fill-rule:nonzero;"/>
            </g>
        </g>
        <g transform="matrix(1,0,0,1,0,-2.4)">
            <path d="M416.806,43.163L416.683,43.163C414.992,43.163 413.445,42.811 412.072,42.163C410.291,41.321 408.804,39.981 407.68,38.261C405.664,35.205 404.68,31.017 404.652,26.129C404.654,21.141 405.704,16.894 407.803,13.815C408.972,12.087 410.501,10.748 412.316,9.908C413.725,9.256 415.305,8.904 417.022,8.904C417.04,8.904 417.059,8.904 417.077,8.904L417.077,10.903C413.732,10.92 411.256,12.338 409.453,14.944C407.664,17.553 406.649,21.419 406.651,26.124C406.672,30.746 407.631,34.574 409.348,37.158C411.079,39.739 413.45,41.143 416.741,41.162C420.177,41.142 422.624,39.778 424.392,37.204C426.147,34.622 427.121,30.73 427.117,25.841C427.121,21.357 426.252,17.547 424.582,14.955C422.897,12.372 420.541,10.925 417.077,10.904L417.077,9.908L417.077,9.904L417.077,8.903C417.1,8.903 417.122,8.903 417.145,8.903C418.887,8.903 420.462,9.258 421.846,9.908C423.67,10.765 425.162,12.134 426.265,13.876C428.232,16.949 429.113,21.108 429.117,25.841C429.114,30.985 428.12,35.253 426.047,38.325C424.904,40.032 423.398,41.34 421.6,42.163C420.174,42.815 418.564,43.163 416.806,43.163ZM402.525,42.635L379.356,42.635L379.356,37.595L380.357,36.672L383.372,33.893C390.75,27.088 393.928,23.409 393.901,19.937C393.9,18.714 393.576,17.673 392.911,16.953C392.245,16.236 391.183,15.712 389.333,15.705C389.325,15.705 389.316,15.704 389.308,15.704C386.932,15.704 384.762,16.952 383.265,18.093L382.231,18.876L380.357,14.346L379.723,12.811L380.304,12.342C380.322,12.328 380.339,12.314 380.357,12.299C381.554,11.344 383.026,10.51 384.704,9.908C386.451,9.281 388.42,8.905 390.533,8.903C390.541,8.903 390.548,8.903 390.556,8.903C392.569,8.903 394.341,9.261 395.846,9.908C397.071,10.434 398.118,11.151 398.974,12.021C400.888,13.961 401.809,16.6 401.807,19.361C401.776,25.373 397.551,29.964 392.126,35.023L392.097,35.048L391.294,35.738L402.525,35.738L402.525,42.635ZM401.526,41.635L401.526,40.634L401.526,41.635ZM389.37,13.704C391.582,13.704 393.291,14.403 394.384,15.6C395.483,16.799 395.903,18.375 395.901,19.949C395.778,24.72 392.044,28.531 384.73,35.361L381.355,38.473L381.355,40.634L400.526,40.634L400.526,37.739L387.709,37.739L387.709,36.739L387.709,36.182L390.767,33.554C396.19,28.532 399.836,24.291 399.806,19.361C399.728,14.722 396.984,10.975 390.533,10.904C390.527,10.904 390.522,10.904 390.516,10.904C387.162,10.904 384.212,11.994 382.152,13.451L383.107,15.759C384.711,14.712 386.839,13.711 389.333,13.704C389.345,13.704 389.357,13.704 389.37,13.704ZM477.116,42.634L469.549,42.634L469.549,42.163L469.548,34.713L455.436,34.713L455.436,29.575L468.304,9.908L468.615,9.432L477.117,9.432L477.117,9.908L477.116,28.249L481.148,28.249L481.148,34.714L480.147,34.714L477.116,34.713L477.116,42.634ZM476.117,41.635L476.117,40.635L476.117,41.635ZM469.696,11.43L457.434,30.17L457.434,32.714L471.548,32.714L471.548,40.635L475.117,40.635L475.117,32.713L479.149,32.712L479.149,30.249L475.116,30.249L475.115,11.43L469.696,11.43ZM447.788,42.634L441.076,42.634L440.076,42.634L440.076,42.163L440.076,17.336L434.573,20.111L433.11,13.626L440.645,9.908L441.61,9.431L447.788,9.431L447.788,42.634ZM440.739,14.76L442.075,14.76L442.075,40.635L445.788,40.634L445.788,11.431L442.077,11.431L435.407,14.724L435.96,17.17L440.739,14.76ZM416.983,38.651L416.891,38.651C414.86,38.651 413.152,37.325 412.159,35.24C411.128,33.129 410.605,30.185 410.602,26.38C410.602,26.31 410.6,26.222 410.604,26.114C410.603,26.044 410.602,25.967 410.601,25.879C410.605,21.954 411.151,18.96 412.193,16.833C413.2,14.731 414.9,13.415 416.896,13.415C416.908,13.415 416.921,13.415 416.934,13.416L416.934,15.416C415.807,15.433 414.856,16.017 413.987,17.718C413.148,19.408 412.597,22.146 412.601,25.879C412.601,25.946 412.603,26.026 412.604,26.118L412.604,26.142L412.603,26.176C412.601,26.219 412.601,26.289 412.602,26.38C412.597,29.996 413.126,32.687 413.954,34.357C414.813,36.037 415.754,36.631 416.934,36.65C418.206,36.627 419.119,35.985 419.956,34.195C420.754,32.418 421.218,29.599 421.213,25.937C421.218,22.393 420.777,19.62 419.991,17.864C419.165,16.095 418.261,15.441 416.934,15.416L416.934,14.417L416.934,13.416C416.952,13.415 416.97,13.415 416.988,13.415C419.185,13.415 420.9,14.89 421.819,17.052C422.785,19.245 423.209,22.232 423.214,25.937C423.209,29.763 422.761,32.8 421.782,35.009C420.851,37.187 419.142,38.651 416.983,38.651ZM471.548,30.249L462.052,30.249L462.052,29.25L462.945,29.696L462.052,29.25L462.052,30.249L460.434,30.249L461.157,28.802L461.237,28.642L466.958,20.086C467.9,18.389 468.7,16.833 469.649,14.889L469.923,14.329L471.82,14.329L471.736,15.407C471.596,17.196 471.548,18.995 471.548,20.753L471.548,30.249ZM469.557,19.493C469.275,20.023 468.988,20.552 468.687,21.094L468.669,21.125L463.907,28.248L469.548,28.248L469.548,20.753C469.548,20.336 469.551,19.916 469.557,19.493Z" style="fill:rgb(131,126,49);fill-opacity:0;fill-rule:nonzero;"/>
        </g>
    </g>
</svg>
